<?xml version="1.0" standalone="no"?>
<!DOCTYPE svg PUBLIC "-//W3C//DTD SVG 20010904//EN"
 "http://www.w3.org/TR/2001/REC-SVG-20010904/DTD/svg10.dtd">
<svg version="1.0" xmlns="http://www.w3.org/2000/svg"
 width="288.000000pt" height="288.000000pt" viewBox="0 0 288.000000 288.000000"
 preserveAspectRatio="xMidYMid meet">
<metadata>
Created by potrace 1.14, written by Peter Selinger 2001-2017
</metadata>
<g transform="translate(0.000000,288.000000) scale(0.100000,-0.100000)"
fill="#000000" stroke="none">
<path d="M1099 2876 c-2 -2 -23 -6 -46 -9 -471 -65 -871 -419 -1007 -891 -34
-117 -41 -174 -40 -346 0 -155 16 -252 60 -383 40 -119 129 -279 208 -376 42
-51 185 -189 215 -207 17 -10 31 -22 31 -26 0 -4 5 -8 11 -8 6 0 25 -10 42
-23 80 -59 257 -133 386 -163 205 -48 456 -36 659 31 84 28 217 91 271 128
l34 23 291 -291 c307 -307 318 -315 407 -315 44 1 107 30 141 66 55 59 68 156
31 227 -9 18 -141 157 -294 310 l-279 279 39 56 c98 145 175 343 199 514 9 67
9 287 0 353 -45 329 -257 661 -540 847 -213 139 -404 198 -664 204 -83 2 -153
2 -155 0z m326 -89 c215 -52 317 -94 452 -183 163 -108 326 -298 403 -468 75
-169 101 -284 105 -472 12 -499 -308 -949 -785 -1108 -102 -34 -135 -41 -250
-55 -277 -34 -589 55 -820 232 -283 218 -452 559 -452 912 1 245 68 457 215
675 45 67 212 229 292 282 130 88 292 152 455 182 71 13 334 15 385 3z"/>
<path d="M1775 2378 c-19 -10 -45 -33 -57 -51 l-21 -33 -131 33 c-72 18 -147
35 -166 38 -19 3 -41 8 -47 10 -8 3 -36 -67 -81 -208 l-69 -212 -84 -7 c-144
-13 -313 -61 -415 -119 l-50 -28 -50 25 c-180 93 -374 -113 -271 -289 15 -25
36 -52 47 -60 15 -11 19 -24 19 -63 -6 -229 187 -429 499 -519 47 -14 108 -28
136 -31 28 -4 54 -8 58 -10 11 -7 228 -5 278 1 398 54 680 278 680 539 0 57 2
63 36 94 144 133 39 378 -155 360 -27 -3 -67 -14 -90 -26 l-40 -21 -78 38
c-118 59 -236 92 -375 107 -35 3 -65 8 -67 10 -5 4 95 314 106 330 6 7 53 -1
153 -25 l145 -36 7 -40 c27 -139 225 -175 305 -56 47 70 42 150 -14 212 -54
60 -134 74 -208 37z m-435 -502 c157 -12 317 -67 438 -149 244 -167 273 -402
74 -595 -105 -102 -303 -186 -487 -207 -58 -7 -247 -7 -266 -1 -8 3 -36 7 -64
10 -111 12 -266 71 -362 137 -74 51 -115 92 -153 155 -142 235 18 494 375 607
100 31 279 57 350 50 11 -1 54 -4 95 -7z"/>
<path d="M900 1619 c-44 -18 -80 -71 -80 -121 0 -72 82 -136 155 -122 35 6 94
54 96 77 1 7 3 25 5 41 10 89 -89 159 -176 125z"/>
<path d="M1443 1610 c-114 -69 -58 -245 75 -235 74 6 125 68 116 140 -12 95
-110 145 -191 95z"/>
<path d="M929 1184 c-30 -36 41 -95 151 -124 143 -39 359 -4 438 70 26 25 27
33 6 54 -20 20 -21 20 -50 -3 -23 -18 -43 -19 -242 -20 -157 0 -222 4 -237 13
-36 22 -53 25 -66 10z"/>
</g>
</svg>
